<svg width="42" height="42" viewBox="0 0 42 42" fill="none" xmlns="http://www.w3.org/2000/svg">
<path d="M32.1396 3.18945C33.7005 4.16722 35.1585 5.367 36.4648 6.78906C44.3108 15.3302 43.7471 28.6149 35.2061 36.4609C26.6649 44.3069 13.3802 43.7433 5.53418 35.2021C-2.31149 26.6611 -1.74784 13.3772 6.79297 5.53125C7.64767 4.74611 8.55074 4.04586 9.49023 3.42871C3.12504 9.60422 2.80017 19.764 8.83691 26.3359C14.9772 33.0202 25.3732 33.4614 32.0576 27.3213C38.742 21.1809 39.1833 10.784 33.043 4.09961C32.7512 3.78206 32.4497 3.47878 32.1396 3.18945ZM20.6836 0C23.1406 0.0733917 25.1092 2.08679 25.1094 4.56152C25.1091 7.08245 23.0659 9.12577 20.5449 9.12598C18.0239 9.12583 15.9798 7.08249 15.9795 4.56152C15.9796 2.17436 17.8125 0.215226 20.1475 0.0136719C20.3261 0.00650456 20.5049 0.00262688 20.6836 0Z" fill="url(#paint0_linear_44_132)"/>
<defs>
<linearGradient id="paint0_linear_44_132" x1="6.75243" y1="14.2584" x2="34.3376" y2="61.0591" gradientUnits="userSpaceOnUse">
<stop offset="0.187149" stop-color="#9BA1EF"/>
<stop offset="0.5" stop-color="#FADAE0"/>
<stop offset="0.635696" stop-color="white"/>
<stop offset="1" stop-color="#C9C9F0"/>
</linearGradient>
</defs>
</svg>
