<svg width="115" height="115" viewBox="0 0 115 115" fill="none" xmlns="http://www.w3.org/2000/svg">
<circle cx="57.5" cy="57.5" r="57.5" fill="#353535"/>
<path fill-rule="evenodd" clip-rule="evenodd" d="M78.689 29.4339C75.765 30.4493 57.0889 38.4735 45.4359 43.7213C32.6081 49.4983 22.2725 54.2012 20.8532 54.9074C18.9832 55.8376 18 56.914 18 58.0312C18 58.6801 18.0971 58.9112 18.5643 59.3737C18.8747 59.6809 19.3631 60.0527 19.6496 60.1996C20.5771 60.6755 23.3899 61.5677 26.9427 62.5131C28.8528 63.0212 31.158 63.6424 32.0653 63.8933C35.5515 64.8574 38.0182 64.0679 43.235 60.3186C44.5887 59.3458 47.2202 57.469 49.0825 56.1483C50.9448 54.8275 53.6407 52.8882 55.0733 51.839C60.1282 48.1366 66.5953 43.7037 67.1156 43.5845C68.0618 43.3677 68.7423 44.1376 68.4511 45.0948C68.3311 45.4892 65.2386 48.8269 62.7102 51.291C61.8489 52.1305 59.2703 54.6566 56.9799 56.9048C54.6897 59.1529 51.9563 61.8102 50.9058 62.8098C48.7236 64.8864 47.8265 65.8815 47.4476 66.6458C46.7768 67.999 46.9645 69.6511 47.9177 70.7849C48.224 71.1494 52.1473 74.0053 56.6361 77.1311C61.1248 80.2571 65.5007 83.3349 66.3602 83.9707C68.023 85.201 70.0363 86.3239 71.2933 86.7223C72.3956 87.0716 74.2034 87.0255 75.0425 86.6268C75.4245 86.4453 76.039 85.9475 76.4082 85.5203C77.7802 83.9331 78.357 81.9168 79.1292 76.0109C79.4162 73.8156 79.8865 70.4708 80.1744 68.5778C81.9068 57.1866 83.231 48.1614 84.4401 39.5026C85.4259 32.4439 85.1641 30.2614 83.221 29.3408C82.1914 28.8531 80.247 28.893 78.689 29.4339Z" fill="white"/>
</svg>
