<svg width="108" height="112" viewBox="0 0 108 112" fill="none" xmlns="http://www.w3.org/2000/svg">
<rect x="16" y="20.2358" width="76.68" height="68.04" fill="white"/>
<mask id="mask0_28_16785" style="mask-type:luminance" maskUnits="userSpaceOnUse" x="0" y="0" width="108" height="112">
<path d="M108 0H0V111.775H108V0Z" fill="white"/>
</mask>
<g mask="url(#mask0_28_16785)">
<path fill-rule="evenodd" clip-rule="evenodd" d="M7.5918 7.85718C0 15.7144 0 28.3603 0 53.6521V58.1231C0 83.415 0 96.0609 7.5918 103.918C15.1836 111.775 27.4024 111.775 51.84 111.775H56.16C80.5976 111.775 92.8164 111.775 100.408 103.918C108 96.0609 108 83.415 108 58.1231V53.6521C108 28.3603 108 15.7144 100.408 7.85718C92.8164 0 80.5976 0 56.16 0H51.84C27.4024 0 15.1836 0 7.5918 7.85718ZM18.2252 33.9986C18.8101 63.0601 32.85 80.5249 57.4651 80.5249H58.8603V63.8984C67.9053 64.8298 74.7449 71.6761 77.4898 80.5249H90.2702C86.7602 67.2982 77.5347 59.9862 71.7747 57.1918C77.5347 53.7455 85.6348 45.3623 87.5697 33.9986H75.9594C73.4395 43.22 65.9703 51.6031 58.8603 52.3948V33.9986H47.2499V66.227C40.05 64.3641 30.9601 55.329 30.5551 33.9986H18.2252Z" fill="#353535"/>
</g>
</svg>
